<?xml version="1.0" encoding="UTF-8"?>
<svg version="1.1" xmlns="http://www.w3.org/2000/svg" width="1080" height="1069">
<path d="M0 0 C356.4 0 712.8 0 1080 0 C1080 352.77 1080 705.54 1080 1069 C723.6 1069 367.2 1069 0 1069 C0 716.23 0 363.46 0 0 Z " fill="#FEFEFE" transform="translate(0,0)"/>
<path d="M0 0 C0.66 0 1.32 0 2 0 C3.22998047 1.49023437 3.22998047 1.49023437 4.6171875 3.59375 C5.39473389 4.75620239 5.39473389 4.75620239 6.18798828 5.94213867 C6.74470215 6.78623291 7.30141602 7.63032715 7.875 8.5 C12.13799919 14.85651048 16.48112045 21.10326051 21.125 27.1875 C25.52400705 32.96716489 29.70607891 38.8551541 33.7878418 44.86230469 C37.78275128 50.72673203 41.92466447 56.47665531 46.09350586 62.21826172 C50.26870954 67.97312216 54.37920075 73.77051849 58.46704102 79.58764648 C62.7407114 85.65830527 67.0853482 91.67625313 71.4609375 97.67382812 C74.68406231 102.10973587 77.75003483 106.61440265 80.70751953 111.23242188 C81.89355072 113.13762145 81.89355072 113.13762145 84 114 C84.22300781 113.34257813 84.44601562 112.68515625 84.67578125 112.0078125 C86.43793881 108.00527173 88.77808207 104.51481063 91.1875 100.875 C92.17741303 99.36349712 93.16699586 97.85177794 94.15625 96.33984375 C94.63964844 95.60362793 95.12304688 94.86741211 95.62109375 94.10888672 C98.45927938 89.76819135 101.226719 85.38235189 104 81 C107.6388891 84.46621774 110.55524085 87.97894265 113.4375 92.125 C114.31368967 93.3733898 115.19137866 94.62072822 116.0703125 95.8671875 C116.77462402 96.86637207 116.77462402 96.86637207 117.49316406 97.88574219 C120.2181243 101.70916339 123.01883671 105.47665058 125.8125 109.25 C130.413331 115.47293084 134.97928756 121.71862535 139.5 128 C145.68076418 136.58376866 151.9478594 145.10201618 158.23388672 153.60888672 C161.74312623 158.35999147 165.24461276 163.11681291 168.74755859 167.87255859 C171.67420749 171.84531489 174.60270774 175.81667846 177.53515625 179.78515625 C183.77471072 188.23340257 189.9706422 196.71006584 196.10791016 205.23291016 C202.33662403 213.87249604 208.66954014 222.4348494 215 231 C222.42121495 241.04094886 229.81171806 251.10066404 237.10791016 261.23291016 C242.75718083 269.06877486 248.49312892 276.83992854 254.23388672 284.60888672 C257.74312623 289.35999147 261.24461276 294.11681291 264.74755859 298.87255859 C267.67420749 302.84531489 270.60270774 306.81667846 273.53515625 310.78515625 C279.77035352 319.22750299 285.96306969 327.69747312 292.09472656 336.21533203 C296.71486702 342.62531996 301.39652687 348.98880307 306.09033203 355.3449707 C310.4213203 361.21008142 314.72589981 367.09324663 319 373 C316 373 316 373 314.45703125 371.71484375 C313.64298828 370.83505859 313.64298828 370.83505859 312.8125 369.9375 C310.41896723 367.36925681 307.91520561 365.02481035 305.265625 362.7265625 C301.05097323 359.07062537 296.98549057 355.27614456 292.9375 351.4375 C291.44164222 350.02448973 289.94554383 348.61173415 288.44921875 347.19921875 C287.70462402 346.49587402 286.9600293 345.7925293 286.19287109 345.06787109 C277.81586973 337.16838305 269.37614933 329.33601609 260.90869141 321.53369141 C253.60027446 314.79481928 246.34626639 307.99747837 239.08398438 301.20898438 C232.04622829 294.63130632 224.99859243 288.06533923 217.91357422 281.53857422 C213.11706089 277.11653708 208.34962387 272.66373938 203.58374023 268.20874023 C199.59046914 264.47816409 195.5829724 260.76372894 191.5625 257.0625 C185.99073536 251.93206325 180.46465147 246.75402436 174.94384766 241.56884766 C170.79244953 237.67261349 166.62569388 233.79414205 162.4375 229.9375 C157.59025703 225.47319456 152.75796426 220.99321732 147.9375 216.5 C147.30577881 215.91210693 146.67405762 215.32421387 146.02319336 214.71850586 C145.42643799 214.16171143 144.82968262 213.60491699 144.21484375 213.03125 C143.65007324 212.50917969 143.08530273 211.98710938 142.50341797 211.44921875 C141 210 141 210 138.94140625 207.59375 C137.03536923 205.80332661 137.03536923 205.80332661 134.2265625 205.26953125 C129.15147528 206.41849167 126.72135619 209.86852664 123.375 213.6875 C122.67133301 214.46335449 121.96766602 215.23920898 121.24267578 216.03857422 C119.8154033 217.61373042 118.39459395 219.1947683 116.98046875 220.78173828 C114.31671172 223.76533005 111.59701537 226.694705 108.875 229.625 C107.91102935 230.67148 106.94749079 231.71835818 105.984375 232.765625 C99.76392504 239.51759539 93.47814059 246.20931743 87.20898438 252.91601562 C81.1423939 259.40693592 75.08076402 265.90170975 69.0625 272.4375 C63.93128827 278.00995802 58.75272703 283.53696912 53.56665039 289.05834961 C49.21434341 293.69543374 44.89114409 298.35795089 40.58496094 303.0378418 C34.10533793 310.07057664 27.54898876 317.03192986 21 324 C17.08427223 322.69475741 16.63670934 321.20732975 14.55078125 317.69140625 C13.87571533 316.56500732 13.20064941 315.4386084 12.50512695 314.27807617 C11.77423007 313.03956331 11.04335499 311.80103758 10.3125 310.5625 C9.55205032 309.28885689 8.79056147 308.01583371 8.02807617 306.7434082 C6.85075691 304.77855688 5.67403923 302.81337576 4.5004425 300.84629822 C0.66620529 294.42157786 -3.25340391 288.05159291 -7.1875 281.6875 C-13.08408859 272.13151486 -18.93844791 262.55084008 -24.7487793 252.94213867 C-25.29445557 252.04213135 -25.84013184 251.14212402 -26.40234375 250.21484375 C-26.88179443 249.42198975 -27.36124512 248.62913574 -27.85522461 247.81225586 C-28.87325939 246.05334504 -28.87325939 246.05334504 -30 245 C-33.80339404 244.6654366 -35.91296341 245.18818117 -39.09765625 247.24609375 C-39.88422607 247.74471924 -40.6707959 248.24334473 -41.48120117 248.75708008 C-42.33302979 249.31161865 -43.1848584 249.86615723 -44.0625 250.4375 C-45.95475232 251.63955994 -47.84803577 252.8399978 -49.7421875 254.0390625 C-50.7537793 254.68262695 -51.76537109 255.32619141 -52.80761719 255.98925781 C-57.8051314 259.13697325 -62.86010997 262.18915642 -67.91574097 265.24221802 C-77.63880724 271.11571574 -87.33192974 277.03633806 -97 283 C-107.32120728 289.36559966 -117.67148492 295.68154786 -128.04663086 301.95874023 C-133.26743229 305.11857716 -138.48079634 308.28813619 -143.66015625 311.515625 C-144.49933594 312.03664795 -145.33851563 312.5576709 -146.203125 313.09448242 C-147.72617712 314.04213478 -149.24596968 314.99505558 -150.76171875 315.9543457 C-155.66650246 319 -155.66650246 319 -159 319 C-157.48133302 315.60256975 -155.49720998 312.98381716 -153.125 310.125 C-152.32320312 309.15820312 -151.52140625 308.19140625 -150.6953125 307.1953125 C-147.30982119 303.1664019 -143.87696601 299.17808041 -140.44165039 295.19165039 C-137.42885254 291.68954167 -134.47013642 288.15303084 -131.5625 284.5625 C-127.41939009 279.45692535 -123.1176955 274.50199947 -118.79711914 269.54711914 C-115.63534162 265.91262149 -112.53149794 262.24479157 -109.5 258.5 C-105.38106834 253.41190794 -101.09852666 248.47996177 -96.796875 243.546875 C-93.63520769 239.91243501 -90.53142528 236.24470182 -87.5 232.5 C-83.92458474 228.08331056 -80.23400652 223.78219615 -76.5 219.5 C-72.00252023 214.34148689 -67.61004548 209.11842906 -63.30078125 203.80078125 C-59.61993587 199.3200238 -55.82486807 194.93840814 -52.04296875 190.54296875 C-49.15769364 187.18857302 -46.29327692 183.81702375 -43.4375 180.4375 C-42.99067871 179.90890381 -42.54385742 179.38030762 -42.08349609 178.83569336 C-40.24305465 176.65751663 -38.40363328 174.47848192 -36.56494141 172.29882812 C-31.09741706 165.81798192 -25.62049696 159.34943513 -20 153 C-27.45339345 157.5147207 -34.49960968 162.47501582 -41.53637695 167.60400391 C-47.82106773 172.1743367 -54.17625575 176.63537197 -60.5625 181.0625 C-69.39607596 187.18751038 -78.19908762 193.35248652 -86.97167969 199.56445312 C-90.47862641 202.04650016 -93.98956294 204.52289324 -97.5 207 C-98.9166847 207.99997446 -100.33335139 208.99997442 -101.75 210 C-110.25 216 -118.75 222 -127.25 228 C-127.9510083 228.49483887 -128.6520166 228.98967773 -129.37426758 229.49951172 C-130.79333958 230.50119043 -132.21244775 231.5028179 -133.6315918 232.50439453 C-137.13675274 234.97829495 -140.64131515 237.45303366 -144.14453125 239.9296875 C-152.59757697 245.90402057 -161.06859593 251.85199034 -169.55126953 257.78417969 C-177.02389806 263.01199197 -184.47659624 268.2676338 -191.92333984 273.53222656 C-195.44767516 276.02320986 -198.97394701 278.51144903 -202.5 281 C-203.91667568 281.99998722 -205.33334236 282.99998722 -206.75 284 C-220.91666667 294 -235.08333333 304 -249.25 314 C-249.95229736 314.49580566 -250.65459473 314.99161133 -251.37817383 315.50244141 C-252.78400815 316.49466183 -254.19009233 317.48652835 -255.59643555 318.47802734 C-259.30604485 321.09409224 -263.0101367 323.71755366 -266.70703125 326.3515625 C-267.47789062 326.89941406 -268.24875 327.44726562 -269.04296875 328.01171875 C-270.51983848 329.06154181 -271.99518337 330.11351437 -273.46875 331.16796875 C-274.13519531 331.64105469 -274.80164063 332.11414063 -275.48828125 332.6015625 C-276.36286987 333.22538818 -276.36286987 333.22538818 -277.25512695 333.86181641 C-279.10787381 335.07036627 -281.00519327 336.04759125 -283 337 C-281.61386584 334.0284645 -279.99777373 331.51108581 -278.015625 328.90234375 C-277.41758057 328.11093994 -276.81953613 327.31953613 -276.20336914 326.50415039 C-275.55875732 325.65715576 -274.91414551 324.81016113 -274.25 323.9375 C-272.87817477 322.12294861 -271.50709788 320.30783126 -270.13671875 318.4921875 C-269.44239746 317.57276367 -268.74807617 316.65333984 -268.03271484 315.70605469 C-265.00998606 311.68204245 -262.03619315 307.62280088 -259.0625 303.5625 C-254.11441947 296.81824657 -249.08301183 290.1430778 -244 283.5 C-236.54480189 273.75447342 -229.24870837 263.89966457 -222 254 C-214.09138797 243.19909557 -206.09947505 232.47353364 -197.96582031 221.84082031 C-191.19624425 212.97722363 -184.58876628 203.99837223 -178 195 C-170.09079052 184.19827963 -162.09920338 173.47115646 -153.96362305 162.83862305 C-148.97583227 156.30927193 -144.07757706 149.71942327 -139.21875 143.09375 C-134.40029015 136.52709609 -129.51754451 130.01045699 -124.62060547 123.50219727 C-120.22715577 117.65589932 -115.88593825 111.77319667 -111.5625 105.875 C-106.85491966 99.45694203 -102.07675924 93.13310355 -97 87 C-94.49318288 89.30668133 -92.80273726 91.73299134 -91.0390625 94.640625 C-90.20761719 95.99994141 -90.20761719 95.99994141 -89.359375 97.38671875 C-88.78703125 98.33160156 -88.2146875 99.27648437 -87.625 100.25 C-83.93572799 106.32297972 -80.21941397 112.27929642 -76 118 C-74.98292969 116.31197266 -74.98292969 116.31197266 -73.9453125 114.58984375 C-69.11084436 106.60162342 -64.20409776 98.69433799 -58.97631836 90.95751953 C-55.28188342 85.47073496 -51.72772926 79.8997644 -48.1875 74.3125 C-43.7073987 67.2436538 -39.19786263 60.19671806 -34.625 53.1875 C-29.66828593 45.5878669 -24.76084493 37.95788395 -19.875 30.3125 C-15.11596652 22.86736531 -10.35508245 15.42359929 -5.5625 8 C-5.10794434 7.29399658 -4.65338867 6.58799316 -4.18505859 5.8605957 C-1.1181574 1.1181574 -1.1181574 1.1181574 0 0 Z " fill="#FA7807" transform="translate(535,466)"/>
<path d="M0 0 C0.66 0 1.32 0 2 0 C3.22998047 1.49023437 3.22998047 1.49023437 4.6171875 3.59375 C5.39473389 4.75620239 5.39473389 4.75620239 6.18798828 5.94213867 C6.74470215 6.78623291 7.30141602 7.63032715 7.875 8.5 C12.13799919 14.85651048 16.48112045 21.10326051 21.125 27.1875 C25.52400705 32.96716489 29.70607891 38.8551541 33.7878418 44.86230469 C37.78275128 50.72673203 41.92466447 56.47665531 46.09350586 62.21826172 C50.26965565 67.97442623 54.38212418 73.77241976 58.46923828 79.59204102 C61.64412008 84.10401836 64.8654271 88.57931508 68.11254883 93.03955078 C73.33578205 100.21540157 78.39861308 107.4035285 83 115 C76.89491727 125.13027755 70.65696513 135.15344621 64.18408203 145.05297852 C59.81280229 151.73977595 55.49008804 158.45630983 51.1875 165.1875 C50.52500244 166.22302002 49.86250488 167.25854004 49.17993164 168.32543945 C46.00683751 173.28738688 42.83817925 178.25209631 39.6789093 183.22285461 C38.57893479 184.95295072 37.47777291 186.68228502 36.3762207 188.41137695 C34.99081944 190.58675441 33.60772733 192.76360473 32.22729492 194.94213867 C31.60056885 195.92545166 30.97384277 196.90876465 30.328125 197.921875 C29.7805957 198.78393555 29.23306641 199.64599609 28.66894531 200.53417969 C26.90567207 203.1393669 24.9954992 205.56951459 23 208 C17.29121118 200.51614515 12.33027269 192.78008686 7.64389038 184.63037109 C6.53944489 182.70991072 5.42761897 180.79389759 4.3137207 178.87890625 C2.85642992 176.37297318 1.40124619 173.86584287 -0.05175781 171.35742188 C-2.44979531 167.22486403 -4.86638896 163.10426366 -7.3125 159 C-7.94800781 157.9275 -8.58351563 156.855 -9.23828125 155.75 C-10.99746581 153.00395581 -12.91440906 150.50455071 -15 148 C-15.97324219 148.86496094 -16.94648437 149.72992187 -17.94921875 150.62109375 C-22.02288469 154.11032605 -26.35664504 157.0868545 -30.8125 160.0625 C-37.26321011 164.42169792 -43.64345 168.8549162 -49.9375 173.4375 C-58.75007527 179.84805673 -67.67283236 186.0932709 -76.60986328 192.32861328 C-80.24875999 194.87323911 -83.87481896 197.4358893 -87.5 200 C-93.65422864 204.35121777 -99.82319504 208.68089404 -106 213 C-114.32405468 218.82118432 -122.62918378 224.66854221 -130.92333984 230.53222656 C-134.44767516 233.02320986 -137.97394701 235.51144903 -141.5 238 C-142.91667568 238.99998722 -144.33334236 239.99998722 -145.75 241 C-158.5 250 -158.5 250 -171.25 259 C-171.9510083 259.49483887 -172.6520166 259.98967773 -173.37426758 260.49951172 C-174.79333958 261.50119043 -176.21244775 262.5028179 -177.6315918 263.50439453 C-181.13675274 265.97829495 -184.64131515 268.45303366 -188.14453125 270.9296875 C-196.59757697 276.90402057 -205.06859593 282.85199034 -213.55126953 288.78417969 C-221.02389806 294.01199197 -228.47659624 299.2676338 -235.92333984 304.53222656 C-239.44767515 307.02320985 -242.97393566 309.51146514 -246.5 312 C-250.83250923 315.05791749 -255.16474972 318.11621348 -259.49609375 321.17578125 C-266.98650174 326.46620356 -274.47955213 331.75231647 -282 337 C-282 333.48384144 -281.43166146 332.92230504 -279.2890625 330.26171875 C-278.70914551 329.53170654 -278.12922852 328.80169434 -277.53173828 328.04956055 C-276.90251465 327.27008057 -276.27329102 326.49060059 -275.625 325.6875 C-270.90300458 319.73504222 -266.32681443 313.75018642 -261.96240234 307.53076172 C-258.18795485 302.19155728 -254.22620544 297.00253406 -250.25 291.8125 C-244.42162947 284.20396174 -238.67749937 276.54182927 -233.00878906 268.8137207 C-228.88676425 263.19561016 -224.72012548 257.61328753 -220.52929688 252.04638672 C-216.73252205 246.99527554 -212.98749918 241.90756615 -209.25 236.8125 C-204.2384432 229.98564596 -199.14651375 223.22562809 -194 216.5 C-186.5447683 206.75449965 -179.2487078 196.8996638 -172 187 C-164.09138797 176.19909557 -156.09947505 165.47353364 -147.96582031 154.84082031 C-141.19624425 145.97722363 -134.58876628 136.99837223 -128 128 C-123.97822689 122.507407 -119.94824528 117.02121652 -115.89306641 111.55322266 C-114.55206445 109.74458216 -113.21343311 107.93418288 -111.87646484 106.12255859 C-109.69862296 103.17816259 -107.50725487 100.24430312 -105.3125 97.3125 C-104.62881348 96.38453613 -103.94512695 95.45657227 -103.24072266 94.50048828 C-102.60054199 93.65083496 -101.96036133 92.80118164 -101.30078125 91.92578125 C-100.45253784 90.78749878 -100.45253784 90.78749878 -99.5871582 89.6262207 C-99.063396 89.08956787 -98.53963379 88.55291504 -98 88 C-97.01 88 -96.02 88 -95 88 C-93.66894531 89.67724609 -93.66894531 89.67724609 -92.328125 92.0234375 C-91.83151367 92.87583008 -91.33490234 93.72822266 -90.82324219 94.60644531 C-90.30407227 95.52006836 -89.78490234 96.43369141 -89.25 97.375 C-88.17987046 99.21256345 -87.10697608 101.0485197 -86.03125 102.8828125 C-85.51304687 103.76743164 -84.99484375 104.65205078 -84.4609375 105.56347656 C-81.87191965 109.88139069 -78.98302021 113.94647915 -76 118 C-74.98292969 116.31197266 -74.98292969 116.31197266 -73.9453125 114.58984375 C-69.11084436 106.60162342 -64.20409776 98.69433799 -58.97631836 90.95751953 C-55.28188342 85.47073496 -51.72772926 79.8997644 -48.1875 74.3125 C-43.7073987 67.2436538 -39.19786263 60.19671806 -34.625 53.1875 C-29.66828593 45.5878669 -24.76084493 37.95788395 -19.875 30.3125 C-15.11596652 22.86736531 -10.35508245 15.42359929 -5.5625 8 C-5.10794434 7.29399658 -4.65338867 6.58799316 -4.18505859 5.8605957 C-1.1181574 1.1181574 -1.1181574 1.1181574 0 0 Z " fill="#046CBA" transform="translate(535,466)"/>
<path d="M0 0 C5.85473034 3.5087224 9.62134593 8.03412206 12.22265625 14.33203125 C13.08294415 21.44684467 13.51234623 29.33916212 9.609375 35.625 C3.82159539 42.74967518 -2.33757923 46.58647241 -11.4765625 47.64453125 C-19.83176465 48.0174273 -26.02942054 45.67993973 -32.58984375 40.58203125 C-38.3466999 35.17326407 -40.01623743 30.21575757 -40.27734375 22.33203125 C-39.99008038 13.92060077 -38.07926528 9.24215489 -31.96484375 3.51953125 C-22.50642854 -4.06798865 -11.05595351 -5.08753633 0 0 Z " fill="#1171BF" transform="translate(556.77734375,811.66796875)"/>
<path d="M0 0 C6.8990625 -0.1546875 6.8990625 -0.1546875 13.9375 -0.3125 C15.36956787 -0.35802002 16.80163574 -0.40354004 18.27709961 -0.45043945 C25.97143685 -0.53362438 31.92012772 -0.03873808 38 5 C41.66732612 9.21969336 42.60385541 13.24497912 42.3203125 18.79296875 C41.59697794 23.77692027 40.02827373 27.06737964 36.3125 30.4375 C35.549375 30.953125 34.78625 31.46875 34 32 C35.43308135 35.95906817 37.33141949 39.28718181 39.625 42.8125 C40.25664063 43.78832031 40.88828125 44.76414062 41.5390625 45.76953125 C42.26222656 46.87361328 42.26222656 46.87361328 43 48 C38.78291509 48.77063481 35.18944117 49.01107182 31 48 C27.17811219 44.44996195 24.51755602 40.59008951 22 36 C22 35.34 22 34.68 22 34 C18.37 34 14.74 34 11 34 C11 38.62 11 43.24 11 48 C7.37 48 3.74 48 0 48 C0 32.16 0 16.32 0 0 Z " fill="#0F70BF" transform="translate(632,810)"/>
<path d="M0 0 C10 0 10 0 12.69580078 2.66210938 C13.40088297 3.86757179 14.06594317 5.09708453 14.6953125 6.34375 C15.05849579 6.9874353 15.42167908 7.63112061 15.79586792 8.29431152 C16.94223744 10.34501954 18.03316649 12.41983571 19.125 14.5 C19.89495206 15.89905924 20.66835682 17.29622425 21.4453125 18.69140625 C23.33756863 22.1069578 25.18066246 25.54509638 27 29 C29.62862343 26.61417721 31.28504946 24.06058616 33.06640625 21 C33.63423828 20.030625 34.20207031 19.06125 34.78710938 18.0625 C35.37298828 17.051875 35.95886719 16.04125 36.5625 15 C37.72981466 12.99961816 38.89775597 10.99960184 40.06640625 9 C40.8389978 7.6696875 40.8389978 7.6696875 41.62719727 6.3125 C42.6979507 4.50880508 43.83647376 2.74528936 45 1 C48.3 1 51.6 1 55 1 C55 16.84 55 32.68 55 49 C51.37 49 47.74 49 44 49 C43.505 36.13 43.505 36.13 43 23 C39.09421435 29.53602566 39.09421435 29.53602566 35.19165039 36.07397461 C34.70688232 36.88358643 34.22211426 37.69319824 33.72265625 38.52734375 C33.22515869 39.35999756 32.72766113 40.19265137 32.21508789 41.05053711 C31 43 31 43 30 44 C27.62988281 44.31787109 27.62988281 44.31787109 25 44 C23.34667969 42.28759766 23.34667969 42.28759766 21.921875 39.9140625 C21.40109375 39.06585937 20.8803125 38.21765625 20.34375 37.34375 C19.8178125 36.4465625 19.291875 35.549375 18.75 34.625 C18.20859375 33.73554687 17.6671875 32.84609375 17.109375 31.9296875 C13.42633929 25.85267857 13.42633929 25.85267857 12 23 C11.67 31.58 11.34 40.16 11 49 C7.37 49 3.74 49 0 49 C0 32.83 0 16.66 0 0 Z " fill="#1473C0" transform="translate(749,809)"/>
<path d="M0 0 C10 0 10 0 12.69580078 2.5703125 C13.40019989 3.73307967 14.06538711 4.92025953 14.6953125 6.125 C15.05849579 6.74648926 15.42167908 7.36797852 15.79586792 8.00830078 C16.94167618 9.98732533 18.03283982 11.99096461 19.125 14 C19.89501012 15.35091767 20.66841621 16.6999057 21.4453125 18.046875 C23.33692958 21.34353519 25.18012279 24.6632415 27 28 C29.72330819 24.71563049 32.05444902 21.42066666 34.19921875 17.734375 C35.05290039 16.27644531 35.05290039 16.27644531 35.92382812 14.7890625 C36.50583984 13.78617188 37.08785156 12.78328125 37.6875 11.75 C38.85679374 9.74404548 40.02729998 7.73879707 41.19921875 5.734375 C41.97011841 4.40744629 41.97011841 4.40744629 42.7565918 3.05371094 C44 1 44 1 45 0 C48.3 0 51.6 0 55 0 C55 15.84 55 31.68 55 48 C51.37 48 47.74 48 44 48 C43.505 35.13 43.505 35.13 43 22 C38.92666408 28.89932768 38.92666408 28.89932768 34.89379883 35.82226562 C34.37841553 36.67498047 33.86303223 37.52769531 33.33203125 38.40625 C32.81358643 39.28603516 32.2951416 40.16582031 31.76098633 41.07226562 C30 43 30 43 27.40478516 43.40185547 C25 43 25 43 23.19140625 41.1640625 C22.65386719 40.32617188 22.11632812 39.48828125 21.5625 38.625 C21.02753906 37.81289063 20.49257813 37.00078125 19.94140625 36.1640625 C17.26130847 31.79609631 14.63661143 27.39435239 12 23 C11.67 31.25 11.34 39.5 11 48 C7.37 48 3.74 48 0 48 C0 32.16 0 16.32 0 0 Z " fill="#FB7C0E" transform="translate(392,810)"/>
<path d="M0 0 C3.96 0 7.92 0 12 0 C14.19234014 4.74409925 16.37916179 9.49069195 18.5612793 14.23950195 C19.3016924 15.84889327 20.04351372 17.45763761 20.78686523 19.06567383 C25.19721075 28.60903105 29.35162977 38.13428878 33 48 C29.04 48 25.08 48 21 48 C19.68 45.03 18.36 42.06 17 39 C9.41 38.67 1.82 38.34 -6 38 C-6.99 41.3 -7.98 44.6 -9 48 C-12.96 48 -16.92 48 -21 48 C-19.41823783 42.89383586 -17.34963698 38.10543058 -15.15625 33.2421875 C-14.78649048 32.41671417 -14.41673096 31.59124084 -14.0357666 30.74075317 C-13.25711206 29.00381621 -12.47709784 27.26748821 -11.69580078 25.53173828 C-10.50131694 22.87792587 -9.31084051 20.22234527 -8.12109375 17.56640625 C-7.36221126 15.87489585 -6.60310434 14.18348612 -5.84375 12.4921875 C-5.31086365 11.30458328 -5.31086365 11.30458328 -4.76721191 10.09298706 C-4.43346558 9.35186676 -4.09971924 8.61074646 -3.75585938 7.84716797 C-3.46432983 7.19908173 -3.17280029 6.55099548 -2.87243652 5.88327026 C-1.9551029 3.90308364 -0.97597542 1.95195083 0 0 Z " fill="#FB7B0D" transform="translate(301,810)"/>
<path d="M0 0 C3.96 0 7.92 0 12 0 C12.01401855 1.46022583 12.01401855 1.46022583 12.02832031 2.94995117 C12.06831092 6.5752472 12.13409325 10.19970263 12.20751953 13.82446289 C12.23567694 15.39075897 12.25691753 16.95719575 12.27099609 18.52368164 C12.29249967 20.78084066 12.33918189 23.03631739 12.390625 25.29296875 C12.39185364 25.98899704 12.39308228 26.68502533 12.39434814 27.40214539 C12.53662453 32.16647877 13.5853512 34.67682909 17 38 C20.39002031 38.8746687 23.56832351 38.63380381 27 38 C29.57637471 36.11484777 30.59667428 34.80665143 32 32 C32.15608023 29.59439727 32.25804458 27.21297228 32.31640625 24.8046875 C32.33718735 24.09724396 32.35796844 23.38980042 32.37937927 22.66091919 C32.44481078 20.39904575 32.50372974 18.13705538 32.5625 15.875 C32.60569133 14.34243578 32.64930582 12.80988343 32.69335938 11.27734375 C32.80048555 7.51834927 32.9017709 3.75923708 33 0 C36.63 0 40.26 0 44 0 C44.07471341 4.41077344 44.12886513 8.82120184 44.16479492 13.23242188 C44.17978888 14.72988307 44.20019105 16.22730105 44.22631836 17.72460938 C44.38542248 27.08367523 44.18194224 34.39978165 39.4375 42.75 C34.41358592 47.38745915 28.25856634 49.21738172 21.5 49.5625 C15.56574334 49.31839583 10.82801726 47.42546476 6 44 C0.94471913 38.06004497 -0.25658315 32.07289408 -0.1953125 24.4140625 C-0.19106766 23.36138687 -0.19106766 23.36138687 -0.18673706 22.28744507 C-0.17562512 20.06644972 -0.15053834 17.84587155 -0.125 15.625 C-0.11495854 14.11068295 -0.10583473 12.59635951 -0.09765625 11.08203125 C-0.07571554 7.38788742 -0.04124875 3.69398449 0 0 Z " fill="#1272C0" transform="translate(577,810)"/>
<path d="M0 0 C3.63 0 7.26 0 11 0 C11.00410889 0.97348389 11.00821777 1.94696777 11.01245117 2.94995117 C11.03428785 6.57532079 11.08862216 10.19961202 11.15258789 13.82446289 C11.17572882 15.39076369 11.19015448 16.95721922 11.19555664 18.52368164 C11.20487588 20.78108703 11.24592233 23.03607221 11.29296875 25.29296875 C11.2890361 25.98899704 11.28510345 26.68502533 11.28105164 27.40214539 C11.39641034 31.27995426 11.91605756 32.89723301 14.40161133 35.94018555 C17.08560014 38.06785759 18.14185487 38.68412227 21.5 38.625 C22.2321875 38.63789062 22.964375 38.65078125 23.71875 38.6640625 C27.2245604 37.6435355 28.70824064 35.80569869 31 33 C31.50762732 30.23107243 31.72264271 28.05599688 31.70703125 25.29296875 C31.72215256 24.56757401 31.73727386 23.84217926 31.75285339 23.09480286 C31.79562827 20.79204987 31.80455741 18.49061016 31.8125 16.1875 C31.83565261 14.62040804 31.86101956 13.05334714 31.88867188 11.48632812 C31.95142194 7.65743655 31.98383701 3.82936016 32 0 C35.63 0 39.26 0 43 0 C43.09954745 4.69557647 43.17178467 9.39052663 43.21972656 14.08691406 C43.23973053 15.68142408 43.26694301 17.27586178 43.30175781 18.87011719 C43.68549812 36.90591182 43.68549812 36.90591182 37.62255859 43.49755859 C31.75842851 48.89133459 25.62371648 49.46419388 17.97265625 49.3125 C12.1239919 48.69766012 7.97922855 46.40164072 4.125 42 C0.43289426 36.78761542 -0.28380362 33.3391619 -0.1953125 26.953125 C-0.1924826 26.18192322 -0.18965271 25.41072144 -0.18673706 24.6161499 C-0.17557013 22.16060668 -0.15047229 19.7054324 -0.125 17.25 C-0.11496568 15.58203653 -0.10584061 13.91406732 -0.09765625 12.24609375 C-0.07564225 8.16392103 -0.04113667 4.082023 0 0 Z " fill="#FB7B0B" transform="translate(338,810)"/>
<path d="M0 0 C-0.875 6.75 -0.875 6.75 -2 9 C-7.75 8.125 -7.75 8.125 -10 7 C-11.62165752 6.87851695 -13.24884327 6.82456348 -14.875 6.8125 C-15.73867188 6.79832031 -16.60234375 6.78414062 -17.4921875 6.76953125 C-20.1241288 7.01140748 -21.73980544 7.67016459 -24 9 C-24 10.65 -24 12.3 -24 14 C-23.40574219 14.17015625 -22.81148437 14.3403125 -22.19921875 14.515625 C-2.52538044 20.26785144 -2.52538044 20.26785144 2 26 C3.55944339 29.11888678 3.28316275 31.5454145 3 35 C1.13111029 39.92707286 -0.82218173 42.27919328 -5.375 44.9375 C-12.60548937 48.15816046 -20.47310982 48.30003 -28.046875 46.125 C-30.43700942 45.1855252 -32.71761255 44.17420346 -35 43 C-35.66 42.67 -36.32 42.34 -37 42 C-36.44271087 38.65626525 -35.64826111 35.96687001 -34 33 C-32.948125 33.433125 -32.948125 33.433125 -31.875 33.875 C-30.92625 34.24625 -29.9775 34.6175 -29 35 C-28.113125 35.37125 -27.22625 35.7425 -26.3125 36.125 C-20.60612361 37.63234471 -14.68732556 37.6380546 -9 36 C-8.58219121 33.62694422 -8.58219121 33.62694422 -9 31 C-12.85274296 28.09213127 -16.78287508 27.18436076 -21.4375 26.125 C-27.08336165 24.74659717 -31.06847412 23.39405833 -35 19 C-36.85987597 15.28024805 -36.43094573 11.0596337 -36 7 C-33.92017066 2.32038398 -31.1332553 -0.25658019 -26.53125 -2.30859375 C-17.64533288 -4.73576556 -8.44772095 -3.27008553 0 0 Z " fill="#1272BF" transform="translate(739,812)"/>
<path d="M0 0 C13.86 0 27.72 0 42 0 C42 2.97 42 5.94 42 9 C37.05 9 32.1 9 27 9 C27 21.87 27 34.74 27 48 C23.37 48 19.74 48 16 48 C16 35.13 16 22.26 16 9 C10.72 9 5.44 9 0 9 C0 6.03 0 3.06 0 0 Z " fill="#0E70BE" transform="translate(472,810)"/>
<path d="M0 0 C4.23900184 1.85921133 5.57289618 3.25968671 7.875 7.25 C9.50836284 12.69454281 9.81295969 16.7750577 7.8125 22.25 C5.46100791 25.8177811 2.81557843 28.09221079 -1 30 C-6.0111158 30.54978069 -9.89696493 30.56154513 -14.4375 28.25 C-18.2437995 24.90788336 -20.63632259 22.13001051 -21.23828125 16.94921875 C-21.42001793 11.41103242 -20.74513006 8.35244845 -17 4 C-16.34 3.21625 -15.68 2.4325 -15 1.625 C-10.16606397 -0.99338202 -5.36832593 -0.70559297 0 0 Z " fill="#FCFDFE" transform="translate(549,819)"/>
<path d="M0 0 C3.63 0 7.26 0 11 0 C11 15.84 11 31.68 11 48 C7.37 48 3.74 48 0 48 C0 32.16 0 16.32 0 0 Z " fill="#0B6EBE" transform="translate(683,810)"/>
<path d="M0 0 C14.77772467 -0.27366157 14.77772467 -0.27366157 18 2 C20.34549674 5.51824511 20.57991403 6.85775694 20 11 C17.44975635 14.10164769 15.82300753 15.72566416 12 17 C7.99616868 17.13399703 4.0072645 17.04308887 0 17 C0 11.39 0 5.78 0 0 Z " fill="#F2F7FB" transform="translate(643,819)"/>
<path d="M0 0 C3.04662882 2.56417147 4.20951098 5.40969231 5.6875 9.0625 C6.34298828 10.65771484 6.34298828 10.65771484 7.01171875 12.28515625 C8 15 8 15 8 17 C3.38 17 -1.24 17 -6 17 C-5.19980115 12.19880692 -4.45116558 9.35886096 -2.4375 5.125 C-1.75494141 3.67480469 -1.75494141 3.67480469 -1.05859375 2.1953125 C-0.70925781 1.47085938 -0.35992187 0.74640625 0 0 Z " fill="#FEFAF6" transform="translate(306,822)"/>
</svg>
